<svg version="1.1" xmlns="http://www.w3.org/2000/svg" viewBox="-111.1 140.3 1638.2 951.7">
<rect x="-111.1" y="140.3" width="1638.2" height="951.7" fill="#1a1520" />
<polyline points="461.0 294.0,458.0 293.0,455.0 291.0,453.0 289.0,451.0 286.0,450.0 284.0,449.0 280.0,450.0 278.0,450.0 274.0,451.0 271.0,451.0 268.0,452.0 266.0,453.0 263.0,454.0 258.0,457.0 254.0,458.0 252.0,460.0 251.0,463.0 249.0,465.0 248.0,468.0 249.0,472.0 249.0,475.0 251.0,477.0 252.0,481.0 255.0,483.0 257.0,488.0 264.0,489.0 269.0,489.0 273.0,488.0 276.0,485.0 284.0,483.0 286.0,478.0 290.0,476.0 291.0,471.0 293.0,468.0 293.0,461.0 292.0,459.0 291.0,456.0 290.0,454.0 289.0,453.0 287.0,451.0 285.0,451.0 283.0" style="fill:none;stroke:#ffffff;stroke-width:2"/>
<polyline points="496.0 275.0,510.0 273.0,513.0 273.0,536.0 272.0,540.0 272.0,544.0 271.0,548.0 271.0,553.0 269.0,550.0 267.0,548.0 265.0,545.0 261.0,542.0 259.0,545.0 260.0,548.0 262.0,552.0 265.0,554.0 266.0,557.0 268.0,556.0 273.0,555.0 275.0,553.0 278.0,552.0 279.0" style="fill:none;stroke:#ffffff;stroke-width:2"/>
<polyline points="570.0 249.0,571.0 251.0,571.0 272.0,570.0 281.0,570.0 284.0,571.0 290.0,571.0 284.0,572.0 282.0,572.0 278.0,573.0 266.0,573.0 259.0,572.0 252.0,572.0 249.0,573.0 241.0,574.0 239.0,578.0 239.0,583.0 240.0,586.0 241.0,590.0 241.0,594.0 242.0,598.0 242.0,619.0 243.0,623.0 243.0,628.0 244.0,631.0 244.0,652.0 243.0,655.0 243.0,665.0 244.0,667.0 246.0,668.0 249.0,669.0 253.0,669.0 258.0,668.0 266.0,668.0 269.0,667.0 275.0,667.0 279.0,666.0 281.0,666.0 285.0,664.0 287.0,659.0 290.0,657.0 289.0,653.0 288.0,649.0 288.0,624.0 287.0,621.0 287.0,618.0 286.0,613.0 285.0,609.0 284.0,605.0 284.0,586.0 285.0,583.0 285.0,578.0 286.0,574.0 286.0,571.0 287.0,573.0 285.0,575.0 282.0,576.0 279.0,577.0 275.0,578.0 273.0,578.0 270.0,579.0 268.0,579.0 265.0,580.0 262.0,581.0 258.0,582.0 256.0,583.0 252.0,581.0 253.0,580.0 256.0,578.0 258.0,577.0 260.0,575.0 263.0,570.0 271.0,571.0 266.0,572.0 264.0,574.0 261.0,575.0 257.0,577.0 252.0,578.0 249.0,579.0 247.0,580.0 243.0,581.0 241.0,579.0 243.0,578.0 247.0,576.0 251.0,575.0 254.0,574.0 256.0,572.0 262.0,575.0 262.0,578.0 259.0,580.0 256.0,583.0 253.0,587.0 251.0,586.0 254.0,583.0 261.0,581.0 264.0,579.0 269.0,578.0 271.0,577.0 275.0,576.0 278.0,579.0 276.0,581.0 274.0,582.0 272.0,585.0 268.0,588.0 263.0,590.0 260.0,591.0 257.0,593.0 254.0,596.0 248.0,598.0 246.0,599.0 244.0,601.0 243.0,600.0 245.0,599.0 248.0,597.0 253.0,595.0 257.0,594.0 260.0,591.0 265.0,589.0 269.0,587.0 275.0,590.0 275.0,592.0 273.0,593.0 271.0,595.0 269.0,597.0 265.0,600.0 260.0,602.0 257.0,606.0 250.0,609.0 247.0,610.0 245.0,612.0 247.0,611.0 250.0,606.0 264.0,604.0 268.0,603.0 271.0,602.0 273.0,601.0 277.0,604.0 276.0,605.0 274.0,607.0 272.0,609.0 269.0,612.0 264.0,614.0 262.0,615.0 259.0,617.0 256.0,618.0 254.0,620.0 252.0,621.0 255.0,620.0 257.0,620.0 260.0,619.0 262.0,614.0 273.0,613.0 276.0,612.0 280.0,614.0 282.0,615.0 280.0,617.0 278.0,618.0 276.0,621.0 272.0,623.0 268.0,625.0 265.0,626.0 262.0,629.0 258.0,631.0 255.0,634.0 252.0,636.0 251.0,637.0 253.0,636.0 258.0,636.0 261.0,635.0 263.0,634.0 267.0,632.0 272.0,631.0 274.0,630.0 277.0,629.0 283.0,631.0 285.0,636.0 279.0,638.0 275.0,640.0 272.0,641.0 269.0,644.0 265.0,646.0 261.0,648.0 259.0,649.0 257.0,651.0 255.0,652.0 258.0,651.0 262.0,650.0 264.0,650.0 267.0,648.0 272.0,646.0 276.0,645.0 279.0,644.0 285.0,648.0 282.0,650.0 279.0,652.0 275.0,655.0 271.0,656.0 268.0,657.0 266.0,659.0 263.0,661.0 261.0,663.0 264.0,663.0 267.0,662.0 270.0,662.0 273.0,661.0 275.0,660.0 279.0,659.0 282.0,659.0 286.0,659.0 288.0" style="fill:none;stroke:#ffffff;stroke-width:2"/>
<polyline points="515.0 276.0,517.0 271.0,523.0 269.0,524.0 272.0,524.0 275.0,523.0 277.0,520.0 282.0,517.0 283.0,512.0 281.0,511.0 279.0,509.0 276.0,509.0 273.0,510.0 270.0,512.0 268.0,515.0 267.0,517.0 266.0,520.0 267.0,522.0 269.0,522.0 272.0,521.0 276.0,519.0 278.0,516.0 279.0,514.0 278.0,514.0 274.0,515.0 268.0,517.0 266.0,521.0 267.0,522.0 270.0,522.0 273.0,521.0 275.0,519.0 277.0,517.0 276.0,516.0 273.0,516.0 270.0,517.0 268.0,519.0 265.0,521.0 264.0,524.0 267.0,523.0 270.0,521.0 275.0,520.0 277.0,518.0 279.0,516.0 274.0,517.0 271.0,518.0 265.0" style="fill:none;stroke:#ffffff;stroke-width:2"/>
<polyline points="674.0 265.0,690.0 265.0,717.0 264.0,721.0 264.0,724.0 263.0,732.0 263.0,747.0 264.0,751.0 264.0,756.0 265.0,757.0 263.0,756.0 262.0" style="fill:none;stroke:#ffffff;stroke-width:2"/>
<polyline points="759.0 277.0,751.0 267.0,751.0 263.0,753.0 258.0,754.0 256.0,756.0 254.0,762.0 250.0,764.0 248.0,768.0 246.0,770.0 244.0,774.0 242.0,779.0 241.0,783.0 242.0,785.0 243.0,787.0 245.0,789.0 246.0,790.0 248.0,791.0 251.0,793.0 254.0,794.0 256.0,796.0 263.0,797.0 266.0,797.0 269.0,796.0 272.0,796.0 275.0,795.0 277.0,793.0 280.0,791.0 282.0,788.0 284.0,787.0 286.0,783.0 287.0,781.0 288.0,778.0 289.0,773.0 288.0,771.0 287.0,768.0 286.0,765.0 284.0,763.0 283.0,761.0 280.0,758.0 278.0,757.0 276.0,754.0 273.0,753.0 271.0" style="fill:none;stroke:#ffffff;stroke-width:2"/>
<polyline points="452.0 330.0,446.0 331.0,444.0 333.0,443.0 338.0,444.0 340.0,448.0 345.0,451.0 347.0,453.0 349.0,455.0 350.0,454.0 355.0,451.0 356.0,446.0 357.0,444.0 356.0,441.0 354.0,440.0 351.0" style="fill:none;stroke:#ffffff;stroke-width:2"/>
<polyline points="424.0 370.0,427.0 370.0,435.0 369.0,440.0 369.0,450.0 368.0,453.0 368.0,458.0 367.0,463.0 367.0" style="fill:none;stroke:#ffffff;stroke-width:2"/>
<polyline points="779.0 314.0,780.0 318.0,780.0 323.0,779.0 331.0,779.0 334.0,778.0 339.0,778.0 343.0,777.0 339.0,777.0 335.0,776.0 332.0,776.0 327.0,775.0 325.0,775.0 321.0,776.0 314.0,778.0 312.0,781.0 311.0,784.0 311.0,786.0 310.0,789.0 310.0,792.0 311.0,794.0 313.0,793.0 317.0,792.0 319.0,788.0 322.0,785.0 324.0,783.0 325.0,785.0 324.0,788.0 324.0,791.0 325.0,795.0 326.0,797.0 328.0,797.0 331.0,797.0 335.0" style="fill:none;stroke:#ffffff;stroke-width:2"/>
<polyline points="773.0 350.0,779.0 351.0,787.0 352.0,790.0 352.0,793.0 353.0,798.0 354.0,800.0 355.0" style="fill:none;stroke:#ffffff;stroke-width:2"/>
<polyline points="506.0 319.0,507.0 322.0,508.0 329.0,509.0 331.0,513.0 330.0,514.0 326.0,514.0 323.0,515.0 319.0,515.0 315.0,514.0 309.0,514.0 312.0,515.0 330.0,518.0 331.0,522.0 330.0" style="fill:none;stroke:#ffffff;stroke-width:2"/>
<polyline points="528.0 324.0,526.0 323.0,523.0 323.0,522.0 325.0,521.0 328.0,522.0 330.0,524.0 333.0,526.0 332.0,528.0 328.0,529.0 325.0,530.0 323.0,531.0 320.0,532.0 322.0,533.0 326.0,534.0 328.0,536.0 329.0" style="fill:none;stroke:#ffffff;stroke-width:2"/>
<polyline points="538.0 311.0,539.0 314.0,539.0 317.0,540.0 325.0,539.0 327.0,538.0 330.0,537.0 329.0" style="fill:none;stroke:#ffffff;stroke-width:2"/>
<polyline points="535.0 319.0,536.0 317.0,541.0 318.0,544.0 320.0,546.0 322.0,549.0 323.0,552.0 325.0,555.0 324.0,554.0 322.0,549.0 323.0,549.0 327.0,551.0 328.0,556.0 325.0,558.0 323.0,559.0 326.0,561.0 328.0,562.0 330.0,564.0 335.0" style="fill:none;stroke:#ffffff;stroke-width:2"/>
<polyline points="675.0 313.0,675.0 316.0,673.0 321.0,674.0 312.0,675.0 308.0,677.0 305.0,680.0 305.0,681.0 307.0,682.0 311.0,682.0 316.0,685.0 312.0,686.0 310.0,690.0 307.0,691.0 311.0,692.0 314.0,696.0 314.0,697.0 312.0,699.0 310.0,701.0 306.0,701.0 303.0,699.0 305.0,697.0 308.0,696.0 310.0,696.0 313.0,698.0 316.0,700.0 317.0,703.0 317.0,707.0 317.0" style="fill:none;stroke:#ffffff;stroke-width:2"/>
<polyline points="713.0 311.0,711.0 316.0,712.0 318.0,714.0 320.0,716.0 317.0,716.0 314.0,717.0 311.0,718.0 306.0,719.0 300.0,720.0 297.0,720.0 293.0,719.0 296.0,719.0 299.0,719.0 317.0" style="fill:none;stroke:#ffffff;stroke-width:2"/>
<polyline points="725.0 308.0,724.0 312.0,724.0 314.0" style="fill:none;stroke:#ffffff;stroke-width:2"/>
<polyline points="727.0 296.0,728.0 295.0,729.0 296.0,730.0 297.0,730.0 299.0,730.0 302.0,730.0 304.0" style="fill:none;stroke:#ffffff;stroke-width:2"/>
<polyline points="733.0 312.0,734.0 314.0,736.0 311.0,740.0 314.0,741.0 312.0,744.0 310.0,745.0 313.0,745.0 317.0" style="fill:none;stroke:#ffffff;stroke-width:2"/>
<polyline points="585.0 170.0,587.0 179.0,587.0 182.0,586.0 185.0,586.0 189.0,587.0 184.0" style="fill:none;stroke:#ffffff;stroke-width:2"/>
<polyline points="587.0 169.0,597.0 167.0,598.0 169.0,597.0 176.0,595.0 178.0,593.0 179.0,590.0 179.0,591.0 176.0" style="fill:none;stroke:#ffffff;stroke-width:2"/>
<polyline points="603.0 180.0,605.0 181.0,605.0 184.0,604.0 189.0,605.0 187.0,605.0 185.0" style="fill:none;stroke:#ffffff;stroke-width:2"/>
<polyline points="608.0 178.0,610.0 178.0,612.0 178.0,614.0 179.0,615.0 180.0,617.0 181.0,618.0 183.0" style="fill:none;stroke:#ffffff;stroke-width:2"/>
<polyline points="621.0 186.0,622.0 188.0,627.0 186.0,626.0 182.0,623.0 180.0,620.0 181.0,619.0 185.0,620.0 187.0,622.0 189.0" style="fill:none;stroke:#ffffff;stroke-width:2"/>
<polyline points="638.0 167.0,638.0 170.0,637.0 189.0" style="fill:none;stroke:#ffffff;stroke-width:2"/>
<polyline points="634.0 173.0,640.0 173.0,642.0 174.0,645.0 175.0,648.0 177.0,650.0 179.0,658.0 185.0,659.0 182.0,659.0 178.0,656.0 175.0,653.0 176.0,651.0 179.0,650.0 181.0,651.0 183.0,652.0 185.0" style="fill:none;stroke:#ffffff;stroke-width:2"/>
<polyline points="668.0 177.0,666.0 182.0,667.0 184.0,670.0 187.0,672.0 186.0" style="fill:none;stroke:#ffffff;stroke-width:2"/>
<polyline points="681.0 172.0,676.0 174.0,676.0 178.0,677.0 183.0,681.0 184.0,682.0 179.0,681.0 176.0,681.0 178.0" style="fill:none;stroke:#ffffff;stroke-width:2"/>
<polyline points="688.0 163.0,689.0 167.0,689.0 170.0,690.0 177.0,690.0 183.0,689.0 190.0" style="fill:none;stroke:#ffffff;stroke-width:2"/>
<polyline points="616.0 319.0,615.0 322.0,614.0 327.0,613.0 331.0,611.0 338.0,610.0 341.0" style="fill:none;stroke:#ffffff;stroke-width:2"/>
<polyline points="611.0 359.0,610.0 365.0,607.0 369.0,606.0 371.0,605.0 372.0" style="fill:none;stroke:#ffffff;stroke-width:2"/>
<polyline points="607.0 388.0,607.0 391.0,606.0 394.0,605.0 396.0,604.0 398.0,603.0 401.0" style="fill:none;stroke:#ffffff;stroke-width:2"/>
<polyline points="606.0 418.0,606.0 420.0,606.0 423.0,605.0 424.0,605.0 426.0,604.0 427.0" style="fill:none;stroke:#ffffff;stroke-width:2"/>
<polyline points="412.0 587.0,412.0 590.0,413.0 593.0,413.0 598.0,414.0 622.0,418.0 621.0,421.0 620.0,423.0 619.0,427.0 618.0,431.0 617.0" style="fill:none;stroke:#ffffff;stroke-width:2"/>
<polyline points="441.0 620.0,442.0 611.0,443.0 598.0,443.0 595.0,444.0 592.0,444.0 589.0,445.0 587.0,447.0 590.0,448.0 592.0,449.0 597.0,451.0 601.0,452.0 604.0,454.0 609.0,455.0 612.0,456.0 617.0" style="fill:none;stroke:#ffffff;stroke-width:2"/>
<polyline points="438.0 609.0,442.0 607.0,446.0 606.0,449.0 606.0,455.0 606.0,457.0 607.0" style="fill:none;stroke:#ffffff;stroke-width:2"/>
<polyline points="467.0 620.0,466.0 617.0,465.0 611.0,464.0 608.0,463.0 603.0,463.0 599.0,464.0 590.0,466.0 592.0,468.0 593.0,470.0 597.0,472.0 599.0,474.0 604.0,476.0 606.0,478.0 610.0,481.0 615.0,482.0 613.0,482.0 607.0,481.0 603.0,481.0 599.0,480.0 590.0" style="fill:none;stroke:#ffffff;stroke-width:2"/>
<polyline points="511.0 604.0,516.0 604.0,520.0 605.0,523.0 605.0,525.0 604.0,526.0 603.0" style="fill:none;stroke:#ffffff;stroke-width:2"/>
<polyline points="549.0 615.0,548.0 602.0,548.0 599.0,552.0 585.0,558.0 587.0,561.0 589.0,563.0 591.0,561.0 595.0,558.0 596.0,556.0 597.0,553.0 598.0,548.0 599.0,552.0 601.0,555.0 602.0,562.0 605.0,564.0 607.0,564.0 609.0" style="fill:none;stroke:#ffffff;stroke-width:2"/>
<polyline points="585.0 620.0,584.0 616.0,582.0 607.0,582.0 602.0,586.0 594.0,588.0 599.0,590.0 602.0,591.0 605.0,592.0 607.0,593.0 610.0,594.0 603.0,595.0 600.0,596.0 595.0,597.0 592.0,599.0 591.0,600.0 594.0,602.0 597.0,603.0 601.0,604.0 603.0,605.0 606.0,607.0 608.0,608.0 604.0,607.0 600.0" style="fill:none;stroke:#ffffff;stroke-width:2"/>
<polyline points="810.0 634.0,808.0 622.0,809.0 619.0,810.0 613.0,812.0 605.0,813.0 603.0,815.0 604.0,817.0 607.0,820.0 613.0,820.0 616.0,821.0 619.0,822.0 615.0,823.0 613.0,824.0 610.0,825.0 606.0,826.0 604.0,828.0 602.0,831.0 603.0,832.0 607.0,832.0 611.0,832.0 630.0" style="fill:none;stroke:#ffffff;stroke-width:2"/>
<polyline points="852.0 601.0,851.0 605.0,851.0 621.0,850.0 616.0,850.0 613.0,849.0 608.0,849.0 605.0,850.0 595.0,851.0 593.0,855.0 592.0,857.0 593.0,860.0 595.0,861.0 597.0,862.0 600.0,861.0 606.0,859.0 608.0,858.0 610.0,855.0 612.0,859.0 613.0,862.0 614.0,863.0 616.0,865.0 617.0,866.0 620.0,867.0 622.0,868.0 623.0" style="fill:none;stroke:#ffffff;stroke-width:2"/>
<polyline points="661.0 786.0,662.0 769.0,663.0 767.0,667.0 769.0,668.0 772.0,670.0 777.0,670.0 780.0,671.0 784.0,672.0 781.0,672.0 778.0,673.0 775.0,674.0 770.0,675.0 767.0,677.0 765.0,681.0 768.0,682.0 772.0,683.0 779.0,684.0 782.0,685.0 784.0,686.0 781.0,687.0 780.0" style="fill:none;stroke:#ffffff;stroke-width:2"/>
<polyline points="730.0 794.0,729.0 789.0,729.0 786.0,730.0 783.0,730.0 774.0,731.0 772.0,732.0 769.0,733.0 771.0,735.0 777.0,736.0 781.0,737.0 784.0,737.0 788.0,739.0 786.0,739.0 782.0,741.0 778.0,742.0 774.0,745.0 773.0,746.0 775.0,747.0 780.0,748.0 784.0,748.0 788.0,747.0 791.0,746.0 793.0,746.0 795.0" style="fill:none;stroke:#ffffff;stroke-width:2"/>
<polyline points="706.0 767.0,707.0 771.0,707.0 774.0,705.0 783.0,705.0 770.0,706.0 757.0,707.0 754.0,709.0 752.0,712.0 753.0,714.0 754.0,716.0 756.0,717.0 759.0,716.0 763.0,714.0 765.0,712.0 766.0,715.0 768.0,718.0 769.0,720.0 771.0,721.0 773.0,723.0 775.0,724.0 777.0" style="fill:none;stroke:#ffffff;stroke-width:2"/>
<polyline points="703.0 821.0,704.0 824.0,705.0 838.0,705.0 841.0,705.0 858.0,705.0 861.0,705.0 863.0" style="fill:none;stroke:#ffffff;stroke-width:2"/>
<polyline points="676.0 885.0,675.0 887.0,674.0 895.0,674.0 899.0,675.0 912.0,677.0 913.0,681.0 913.0,685.0 911.0,689.0 911.0,691.0 911.0" style="fill:none;stroke:#ffffff;stroke-width:2"/>
<polyline points="701.0 915.0,702.0 904.0,702.0 900.0,703.0 894.0,704.0 891.0,704.0 888.0,705.0 881.0,708.0 881.0,710.0 884.0,711.0 886.0,715.0 897.0,716.0 900.0,715.0 904.0,714.0 905.0" style="fill:none;stroke:#ffffff;stroke-width:2"/>
<polyline points="705.0 893.0,706.0 891.0,709.0 889.0,713.0 889.0,717.0 890.0,720.0 891.0,721.0 892.0" style="fill:none;stroke:#ffffff;stroke-width:2"/>
<polyline points="729.0 904.0,728.0 900.0,728.0 897.0,729.0 880.0,732.0 880.0,733.0 882.0,735.0 885.0,736.0 888.0,738.0 891.0,739.0 894.0,740.0 898.0,742.0 901.0,743.0 904.0,745.0 902.0,746.0 900.0,746.0 897.0,747.0 887.0,747.0 882.0,748.0 879.0,748.0 877.0" style="fill:none;stroke:#ffffff;stroke-width:2"/>
<polyline points="899.0 626.0,911.0 625.0,920.0 626.0,922.0 626.0,924.0 626.0,927.0 626.0" style="fill:none;stroke:#ffffff;stroke-width:2"/>
<polyline points="940.0 615.0,939.0 622.0,939.0 626.0,938.0 629.0,939.0 634.0,940.0 636.0,943.0 636.0,946.0 635.0,948.0 634.0,952.0 635.0" style="fill:none;stroke:#ffffff;stroke-width:2"/>
<polyline points="961.0 640.0,962.0 637.0,962.0 634.0,963.0 630.0,963.0 627.0,964.0 624.0,966.0 616.0,966.0 613.0,967.0 611.0,970.0 610.0,971.0 612.0,972.0 616.0,975.0 626.0,975.0 629.0,976.0 634.0,975.0 636.0" style="fill:none;stroke:#ffffff;stroke-width:2"/>
<polyline points="967.0 627.0,969.0 626.0,971.0 626.0,973.0 626.0,975.0 627.0,977.0 627.0,979.0 627.0" style="fill:none;stroke:#ffffff;stroke-width:2"/>
<polyline points="993.0 644.0,994.0 640.0,995.0 623.0,998.0 619.0,999.0 622.0,1000.0 624.0,1002.0 630.0,1004.0 634.0,1006.0 637.0,1008.0 633.0,1009.0 630.0,1010.0 626.0,1011.0 621.0,1012.0 617.0,1013.0 611.0,1014.0 609.0" style="fill:none;stroke:#ffffff;stroke-width:2"/>
<polyline points="661.0 651.0,663.0 650.0,670.0 648.0,674.0 648.0,680.0 647.0,682.0 647.0,680.0 647.0" style="fill:none;stroke:#ffffff;stroke-width:2"/>
<polyline points="670.0 651.0,671.0 653.0,672.0 656.0,672.0 659.0,673.0 661.0,674.0 665.0,674.0 669.0,673.0 675.0,672.0 677.0,671.0 678.0" style="fill:none;stroke:#ffffff;stroke-width:2"/>
<polyline points="663.0 676.0,667.0 675.0,670.0 676.0,683.0 675.0,685.0 674.0,690.0 672.0,693.0 670.0" style="fill:none;stroke:#ffffff;stroke-width:2"/>
<polyline points="701.0 650.0,697.0 659.0,702.0 663.0,704.0 667.0,702.0 672.0,700.0 674.0,697.0 675.0,693.0 675.0,693.0 672.0" style="fill:none;stroke:#ffffff;stroke-width:2"/>
<polyline points="711.0 649.0,713.0 650.0,715.0 656.0,717.0 660.0,718.0 665.0,719.0 667.0,719.0 671.0,718.0 676.0,715.0 674.0" style="fill:none;stroke:#ffffff;stroke-width:2"/>
<polyline points="714.0 649.0,715.0 647.0,721.0 643.0,725.0 643.0,729.0 649.0,728.0 653.0,727.0 655.0,724.0 659.0,722.0 660.0,718.0 661.0,715.0 660.0" style="fill:none;stroke:#ffffff;stroke-width:2"/>
<polyline points="683.0 691.0,683.0 698.0,684.0 705.0,685.0 707.0,689.0 709.0,690.0 707.0,691.0 703.0,692.0 701.0,696.0 702.0,697.0 704.0,700.0 709.0,702.0 707.0,704.0 702.0,705.0 698.0,706.0 696.0,708.0 693.0,709.0 695.0" style="fill:none;stroke:#ffffff;stroke-width:2"/>
<polyline points="715.0 713.0,715.0 697.0,716.0 692.0,717.0 688.0,721.0 692.0,722.0 694.0,723.0 697.0,724.0 701.0,725.0 704.0,726.0 709.0,726.0 712.0,726.0 714.0" style="fill:none;stroke:#ffffff;stroke-width:2"/>
<polyline points="716.0 705.0,728.0 707.0" style="fill:none;stroke:#ffffff;stroke-width:2"/>
<polyline points="736.0 710.0,736.0 707.0,735.0 699.0,734.0 697.0,734.0 694.0,733.0 691.0,734.0 688.0,736.0 690.0,740.0 695.0,742.0 697.0,743.0 699.0,746.0 698.0,746.0 693.0,747.0 690.0,747.0 687.0,747.0 683.0" style="fill:none;stroke:#ffffff;stroke-width:2"/>
<polyline points="835.6 712.2,835.6 725.8,836.2 730.3,836.2 728.6,836.2 725.8" style="fill:none;stroke:#5784ff;stroke-width:2"/>
<polyline points="835.6 711.7,840.1 708.3,844.1 710.0,848.0 713.4,849.2 715.0,849.2 717.3,848.6 720.7,846.3 725.2,844.1 728.0,841.8 730.3,839.6 731.4,839.0 729.7" style="fill:none;stroke:#5784ff;stroke-width:2"/>
<polyline points="862.7 709.4,858.8 715.0,862.1 717.9,865.0 719.6,864.4 726.3,861.0 729.2,858.8 729.7,857.6 727.5,857.6 726.3" style="fill:none;stroke:#5784ff;stroke-width:2"/>
<polyline points="875.7 707.7,874.0 716.2,874.0 719.0,874.6 724.6,876.3 726.9,880.2 728.0,882.5 727.5,884.7 727.5,885.8 727.5" style="fill:none;stroke:#5784ff;stroke-width:2"/>
<polyline points="906.7 707.7,903.9 712.8,903.3 715.0,902.2 722.4,902.2 725.2,903.3 730.8,906.2 732.0,907.3 730.3" style="fill:none;stroke:#5784ff;stroke-width:2"/>
<polyline points="920.8 706.6,920.3 708.8,919.7 717.3,919.7 720.1,919.7 721.8,919.7 723.5,919.7 725.8" style="fill:none;stroke:#5784ff;stroke-width:2"/>
<polyline points="923.1 706.0,924.2 704.3,929.9 704.9,929.9 711.1,928.2 713.9,927.1 716.2,925.4 717.9,923.7 719.0,923.1 717.3" style="fill:none;stroke:#5784ff;stroke-width:2"/>
<polyline points="940.6 706.0,937.2 709.4,938.9 713.4,942.3 717.3,938.9 721.3,936.1 721.8" style="fill:none;stroke:#5784ff;stroke-width:2"/>
<polyline points="947.9 708.3,957.0 707.1,958.1 707.1,959.2 706.6,960.9 706.6,961.5 707.1" style="fill:none;stroke:#5784ff;stroke-width:2"/>
<polyline points="957.0 710.5,956.4 716.2,955.8 720.7,955.3 723.5,955.3 725.2,955.3 726.3" style="fill:none;stroke:#5784ff;stroke-width:2"/>
<polyline points="967.1 728.0,967.7 720.1,966.6 716.2,965.4 713.4,964.9 709.4,967.1 707.7,969.4 710.0,970.5 712.2,971.6 713.9,973.9 717.9,975.0 719.6,977.3 717.9,977.3 714.5,976.7 710.0" style="fill:none;stroke:#5784ff;stroke-width:2"/>
<polyline points="984.1 699.2,989.1 703.8,990.8 706.0,991.4 708.3,992.5 713.4,992.5 719.0,992.0 721.3,990.8 724.6,989.7 726.9,988.0 728.0,986.9 729.2" style="fill:none;stroke:#5784ff;stroke-width:2"/>
<polyline points="1033.2 699.8,1031.5 702.6,1030.4 704.9,1027.5 711.7,1025.3 716.2,1024.1 719.0,1022.5 721.8,1020.8 726.3,1019.6 729.7,1018.5 733.1" style="fill:none;stroke:#5784ff;stroke-width:2"/>
<polyline points="1047.3 703.2,1045.6 705.4,1038.8 713.9,1037.1 716.7,1034.3 721.3,1032.0 725.2,1030.9 727.5,1027.5 734.2" style="fill:none;stroke:#5784ff;stroke-width:2"/>
<polyline points="1072.7 706.0,1071.0 713.9,1070.4 717.9,1069.3 724.6,1069.3 726.9,1069.3 732.0,1069.3 729.7" style="fill:none;stroke:#5784ff;stroke-width:2"/>
<polyline points="1072.7 707.7,1074.4 707.1,1076.1 707.1,1077.2 707.1,1078.3 707.7,1079.5 707.7,1080.6 707.7" style="fill:none;stroke:#5784ff;stroke-width:2"/>
<polyline points="1071.0 717.3,1073.3 716.7,1075.5 716.7,1076.6 716.2,1077.8 716.2,1080.0 716.7,1081.2 716.7" style="fill:none;stroke:#5784ff;stroke-width:2"/>
<polyline points="1086.8 719.0,1087.4 721.3,1087.4 723.5,1086.8 724.1" style="fill:none;stroke:#5784ff;stroke-width:2"/>
<polyline points="1090.2 707.7,1090.2 709.2,1089.4 708.5" style="fill:none;stroke:#5784ff;stroke-width:2"/>
<polyline points="1097.0 713.4,1097.5 717.3,1097.5 720.1,1097.0 729.7,1096.4 724.1,1097.5 721.8,1098.7 720.1,1101.5 719.6,1103.2 721.8,1103.2 725.8,1102.0 728.0,1099.8 731.4,1097.0 732.0,1096.4 729.7,1096.4 728.6" style="fill:none;stroke:#5784ff;stroke-width:2"/>
<polyline points="1108.8 729.7,1110.5 720.1,1115.6 723.5,1118.4 719.0,1115.6 720.7,1114.5 724.1,1114.5 726.9,1116.2 729.2,1118.4 729.7,1121.8 728.6,1123.5 727.5" style="fill:none;stroke:#5784ff;stroke-width:2"/>
<polyline points="1146.1 711.7,1144.4 716.2,1144.4 719.6,1144.9 721.8,1147.2 726.3,1148.9 728.0,1152.3 727.5,1154.5 725.8,1156.8 722.4,1157.9 719.6,1158.5 717.3,1158.5 714.5,1157.9 711.1,1156.2 708.3,1153.4 706.0,1150.6 704.9,1147.8 704.9,1146.1 707.7,1146.1 710.0,1146.6 713.9,1147.8 715.6" style="fill:none;stroke:#5784ff;stroke-width:2"/>
<polyline points="1164.7 717.9,1165.3 721.3,1165.8 724.1,1165.8 733.1,1164.7 737.6,1164.1 738.2,1163.0 738.2" style="fill:none;stroke:#5784ff;stroke-width:2"/>
<polyline points="1167.0 715.0,1174.3 715.6,1174.3 721.3,1173.2 723.5,1172.0 725.2,1167.0 726.3,1166.4 723.5" style="fill:none;stroke:#5784ff;stroke-width:2"/>
<polyline points="1183.3 707.7,1183.9 716.7,1183.9 719.0,1184.5 721.8,1184.5 724.1,1183.9 729.2,1182.8 729.2" style="fill:none;stroke:#5784ff;stroke-width:2"/>
<polyline points="1182.2 714.5,1182.8 715.0,1184.5 715.6,1186.1 716.2,1187.3 716.7,1188.4 717.3,1190.1 717.9" style="fill:none;stroke:#5784ff;stroke-width:2"/>
<polyline points="1200.8 714.5,1200.3 725.8,1199.7 726.3,1199.7 727.5,1199.1 726.9" style="fill:none;stroke:#5784ff;stroke-width:2"/>
<polyline points="1204.8 706.0,1204.8 707.5,1204.0 706.8" style="fill:none;stroke:#5784ff;stroke-width:2"/>
<polyline points="1217.8 712.2,1214.4 713.9,1211.5 720.1,1211.0 722.9,1212.1 730.3,1215.5 730.8,1217.8 730.8,1221.1 730.3" style="fill:none;stroke:#5784ff;stroke-width:2"/>
<polyline points="1257.3 703.2,1255.0 704.3,1253.3 707.1,1251.1 710.0,1249.4 713.9,1248.2 716.7,1247.1 719.0,1246.0 722.9,1245.4 725.2,1245.4 727.5,1246.0 726.9" style="fill:none;stroke:#5784ff;stroke-width:2"/>
<polyline points="1265.7 706.0,1264.6 708.3,1260.7 716.7,1259.0 719.0,1257.3 722.9,1255.6 726.3,1254.4 728.0,1253.9 729.2" style="fill:none;stroke:#5784ff;stroke-width:2"/>
<polyline points="1308.6 706.0,1304.7 704.9,1297.3 704.9,1299.6 711.1,1301.3 713.4,1303.6 715.0,1304.7 716.7,1306.4 719.6,1306.4 722.9,1304.1 723.5,1301.3 722.4,1299.6 720.7,1299.0 720.1" style="fill:none;stroke:#5784ff;stroke-width:2"/>
<polyline points="1314.8 713.9,1309.8 721.8,1316.0 719.6,1317.1 717.9,1319.4 722.9,1321.1 723.5" style="fill:none;stroke:#5784ff;stroke-width:2"/>
<polyline points="1327.3 700.9,1326.7 705.4,1326.7 708.3,1326.1 719.6,1326.1 722.4,1325.6 727.5,1325.0 726.3" style="fill:none;stroke:#5784ff;stroke-width:2"/>
<polyline points="1339.7 703.2,1339.7 715.6,1339.7 717.9,1339.7 720.1,1339.1 722.9,1338.6 724.6,1338.0 725.2" style="fill:none;stroke:#5784ff;stroke-width:2"/>
<polyline points="1332.3 707.7,1340.8 710.0,1344.2 712.2,1345.3 713.4,1346.5 714.5" style="fill:none;stroke:#5784ff;stroke-width:2"/>
<polyline points="1319.4 712.8,1323.3 711.7,1326.7 711.7,1329.0 712.2,1331.8 712.8,1335.7 713.9" style="fill:none;stroke:#5784ff;stroke-width:2"/>
<polyline points="1346.5 718.4,1353.8 716.2,1349.8 713.9,1347.6 717.9,1348.2 720.7,1349.8 723.5,1353.2 724.1,1356.1 722.4,1357.2 721.3" style="fill:none;stroke:#5784ff;stroke-width:2"/>
<polyline points="1360.0 701.5,1360.6 704.9,1360.0 719.0,1360.0 721.3,1360.0 724.1,1360.0 725.8" style="fill:none;stroke:#5784ff;stroke-width:2"/>
<polyline points="1370.2 716.7,1369.0 726.3" style="fill:none;stroke:#5784ff;stroke-width:2"/>
<polyline points="1369.6 708.3,1369.6 707.1,1370.2 706.6,1370.7 706.0,1371.9 706.0,1372.4 706.6,1373.0 707.1" style="fill:none;stroke:#5784ff;stroke-width:2"/>
<polyline points="1379.8 708.8,1380.3 720.7,1380.3 721.8,1379.8 722.9,1378.6 722.9,1377.5 722.9" style="fill:none;stroke:#5784ff;stroke-width:2"/>
<polyline points="1376.9 714.5,1386.5 715.0,1391.6 712.2,1388.8 712.2,1389.9 718.4,1392.7 720.7,1395.0 719.6" style="fill:none;stroke:#5784ff;stroke-width:2"/>
<polyline points="1410.8 700.9,1411.4 703.8,1410.8 707.7,1410.8 710.0,1410.2 712.2,1409.7 715.6,1409.7 719.0,1410.8 720.1" style="fill:none;stroke:#5784ff;stroke-width:2"/>
<polyline points="1418.7 713.4,1419.3 721.3,1418.7 719.6,1418.7 718.4,1418.1 716.2" style="fill:none;stroke:#5784ff;stroke-width:2"/>
<polyline points="1420.4 704.3,1421.5 704.3,1422.7 705.4,1423.2 706.0,1423.8 707.1,1424.4 708.3,1424.9 709.4" style="fill:none;stroke:#5784ff;stroke-width:2"/>
<polyline points="1429.4 719.0,1431.7 712.2,1433.4 711.1,1435.6 717.3,1435.1 720.1" style="fill:none;stroke:#5784ff;stroke-width:2"/>
<polyline points="1442.4 704.9,1443.0 707.1,1442.4 715.6,1442.4 718.4,1444.7 716.7,1447.5 714.5,1449.8 712.8,1451.5 711.1,1453.1 708.8" style="fill:none;stroke:#5784ff;stroke-width:2"/>
<polyline points="1446.9 717.9,1450.9 720.1,1455.4 722.9,1456.5 724.6" style="fill:none;stroke:#5784ff;stroke-width:2"/>
<polyline points="924.2 856.2,921.4 864.6,922.0 868.6,924.2 871.4,928.7 870.8,930.4 869.7,932.1 866.9,934.4 861.8,933.8 857.3,932.7 855.6,929.9 855.0,927.6 855.0,925.4 855.6,923.1 857.9,922.0 860.7,923.1 862.9" style="fill:none;stroke:#c86cff;stroke-width:2"/>
<polyline points="940.0 844.3,937.8 846.6,936.7 849.4,937.2 860.7,937.8 862.9,937.8 868.6,937.2 869.7" style="fill:none;stroke:#c86cff;stroke-width:2"/>
<polyline points="931.0 859.0,941.2 856.7,943.4 856.7" style="fill:none;stroke:#c86cff;stroke-width:2"/>
<polyline points="958.7 843.2,953.6 846.0,953.0 849.4,952.5 856.2,952.5 864.1,951.3 868.0,950.8 868.6" style="fill:none;stroke:#c86cff;stroke-width:2"/>
<polyline points="949.6 853.3,959.2 854.5" style="fill:none;stroke:#c86cff;stroke-width:2"/>
<polyline points="964.9 857.3,964.9 858.4,964.9 860.1,964.3 861.8,964.3 863.5,964.3 864.6,963.7 865.8" style="fill:none;stroke:#c86cff;stroke-width:2"/>
<polyline points="968.8 849.4,968.8 850.9,968.1 850.1" style="fill:none;stroke:#c86cff;stroke-width:2"/>
<polyline points="976.2 855.0,973.9 864.1,975.0 865.2,976.7 865.2,978.4 865.2" style="fill:none;stroke:#c86cff;stroke-width:2"/>
<polyline points="988.6 864.1,988.0 860.1,985.8 864.1,985.8 867.5,989.1 869.1,990.3 869.1" style="fill:none;stroke:#c86cff;stroke-width:2"/>
<polyline points="1014.0 869.1,1015.1 860.7,1015.7 857.3,1015.7 855.0,1016.8 851.1,1016.8 848.3,1019.1 850.0,1020.2 851.6,1020.8 854.5,1021.9 858.4,1023.0 861.8,1023.0 864.1,1023.6 866.9,1023.6 870.3,1023.0 870.8" style="fill:none;stroke:#c86cff;stroke-width:2"/>
<polyline points="1017.4 864.6,1020.8 862.4,1024.7 860.1,1025.3 859.5" style="fill:none;stroke:#c86cff;stroke-width:2"/>
<polyline points="896.6 811.6,923.4 811.6,950.2 811.6,977.0 811.6,1003.8 811.6,1030.7 811.6,1064.2 811.6,1067.6 811.6,1067.6 825.4,1067.6 839.2,1067.6 853.0,1067.6 866.8,1067.6 880.6,1067.6 897.9,1067.6 899.6,1040.8 899.6,1014.0 899.6,987.2 899.6,960.3 899.6,933.5 899.6,900.0 899.6,896.6 899.6,896.6 885.8,896.6 872.0,896.6 858.2,896.6 844.4,896.6 830.6,896.6 813.3,896.6 811.6,900.0 811.6" style="fill:none;stroke:#c86cff;stroke-width:2"/>
<polyline points="1071.0 858.4,1078.3 859.5,1080.6 859.5,1087.9 859.0,1090.8 859.0,1095.3 858.4,1098.1 858.4,1113.3 859.0,1116.2 859.5,1120.7 860.1,1128.6 861.2,1132.0 861.8,1137.0 862.4,1145.5 863.5,1160.2 865.2,1164.1 865.2,1167.5 865.8,1172.6 865.8,1181.6 866.3,1185.0 866.3,1193.5 866.9,1198.6 868.0,1201.4 868.6,1208.7 870.3,1212.7 871.4,1215.5 872.0,1217.8 872.5,1221.7 873.7,1225.7 874.2,1227.9 874.2,1230.2 874.8,1233.6 874.8,1239.2 874.2,1241.5 874.2,1244.9 873.7,1247.1 873.7,1288.3 872.5,1291.1 872.5,1294.5 872.0,1300.2 871.4,1304.7 871.4,1317.1 870.8,1320.5 870.8,1323.3 870.3,1325.6 870.3,1334.6 870.8,1338.0 870.8,1341.9 871.4,1344.8 871.4,1347.6 870.8,1350.4 870.8,1349.3 872.0" style="fill:none;stroke:#c86cff;stroke-width:2"/>
<polyline points="1353.2 829.1,1352.7 833.6,1352.1 845.4,1351.5 848.3,1351.5 851.6,1351.0 855.0,1351.0 860.1,1350.4 865.2,1350.4 868.0,1351.0 897.9,1353.2 897.9,1356.1 898.5,1358.3 898.5,1370.2 899.1,1372.4 899.1,1376.4 899.6,1380.3 899.6,1383.7 900.2,1386.5 900.2,1400.6 899.6,1405.2 899.6,1411.4 899.1,1417.6 899.1,1458.2 897.9,1461.6 897.9,1468.9 897.4,1473.5 897.4,1476.3 896.8,1478.5 896.8,1481.9 897.4,1484.2 897.4,1487.0 897.9,1487.0 895.1,1487.6 864.6,1487.6 860.1,1488.1 855.6,1488.1 853.3,1487.6 833.0,1487.6 830.2,1487.0 827.9,1485.9 825.7,1484.8 824.0,1482.5 823.4,1478.5 822.9,1475.7 822.3,1473.5 822.3,1460.5 822.9,1457.7 823.4,1453.1 823.4,1436.8 822.9,1434.0 822.9,1428.9 822.3,1420.4 822.9,1417.0 823.4,1411.4 824.0,1408.0 824.0,1402.3 824.6,1399.5 824.6,1396.1 824.0,1391.6 824.0,1387.7 823.4,1385.4 823.4,1379.2 822.9,1375.2 822.9,1356.1 823.4,1354.9 825.7,1353.2 826.8,1351.5 827.4" style="fill:none;stroke:#c86cff;stroke-width:2"/>
<polyline points="1365.6 855.6,1364.5 857.3,1364.0 859.5,1364.0 865.8,1364.5 868.0,1366.2 870.8,1369.0 869.7,1371.3 866.9,1372.4 864.1,1373.0 861.2,1373.0 859.0,1371.9 855.0,1370.2 853.9,1367.9 852.8,1365.1 854.5,1364.0 856.7,1364.0 859.0,1364.5 861.8,1365.6 864.1" style="fill:none;stroke:#c86cff;stroke-width:2"/>
<polyline points="1384.3 840.4,1381.5 851.1,1382.0 854.5,1382.6 858.4,1382.6 861.2,1382.0 865.2,1380.9 867.5" style="fill:none;stroke:#c86cff;stroke-width:2"/>
<polyline points="1377.5 858.4,1385.4 856.7,1387.1 856.7,1388.2 856.7,1389.9 856.7" style="fill:none;stroke:#c86cff;stroke-width:2"/>
<polyline points="1396.7 842.6,1393.9 846.6,1393.3 849.4,1392.7 851.6,1392.7 853.9,1392.2 856.7,1391.6 861.2,1391.1 863.5,1390.5 862.9" style="fill:none;stroke:#c86cff;stroke-width:2"/>
<polyline points="1388.2 855.6,1397.3 856.7,1399.5 856.7,1400.6 856.2" style="fill:none;stroke:#c86cff;stroke-width:2"/>
<polyline points="1405.7 854.5,1404.0 863.5,1403.5 864.1" style="fill:none;stroke:#c86cff;stroke-width:2"/>
<polyline points="1406.9 846.6,1408.0 847.1,1408.5 847.7,1409.1 849.4,1409.7 850.0" style="fill:none;stroke:#c86cff;stroke-width:2"/>
<polyline points="1414.8 852.2,1411.9 857.9,1411.9 861.2,1418.7 861.8,1424.9 860.7,1427.7 859.0,1427.2 856.7,1424.9 856.7,1423.2 859.0,1422.7 861.8,1423.2 865.2,1423.8 867.5,1426.0 868.6" style="fill:none;stroke:#c86cff;stroke-width:2"/>
<polyline points="1444.1 848.3,1444.7 851.6,1445.2 857.9,1444.7 860.7,1444.7 863.5,1445.2 857.9,1445.2 855.6,1445.8 851.6,1445.8 848.3,1446.9 845.4,1448.6 842.6,1450.3 841.5,1452.6 842.6,1452.6 845.4,1451.4 848.3,1449.8 850.0,1451.4 851.1,1453.7 852.2,1454.8 854.5,1454.8 856.7,1453.7 859.0,1451.4 860.7,1448.1 861.8,1445.8 861.2,1444.7 859.5,1444.1 858.4" style="fill:none;stroke:#c86cff;stroke-width:2"/>
<polyline points="1059.7 740.4,1071.0 739.9,1073.8 739.9,1102.6 739.3,1106.0 739.3,1112.2 738.8,1116.2 738.8,1122.4 738.2,1126.9 738.2,1218.9 736.5,1222.8 736.5,1235.3 737.1,1239.8 737.1,1247.7 736.5,1253.9 735.9,1264.0 734.8,1268.6 733.7,1274.8 733.1,1280.4 732.0,1284.4 732.0,1297.3 732.5,1300.2 732.5,1303.0 733.1,1307.5 733.7,1315.4 734.2,1318.2 734.2,1321.6 733.7,1326.7 733.7,1331.2 733.1,1334.6 733.1,1349.8 733.7,1352.7 733.7,1355.5 734.2,1358.3 734.2,1361.7 734.8,1364.0 735.4,1364.5 735.9" style="fill:none;stroke:#c86cff;stroke-width:2"/>
<polyline points="1207.0 739.3,1204.8 750.0,1205.3 753.4,1205.3 755.7,1204.8 787.3,1204.8 791.2,1203.6 796.9,1203.1 802.5,1202.5 806.5,1202.0 809.9,1201.4 812.7,1201.4 816.6,1202.0 823.4,1202.0 825.7,1200.8 825.7" style="fill:none;stroke:#c86cff;stroke-width:2"/>
<polyline points="1194.0 818.9,1198.0 824.6,1198.6 826.8,1203.6 829.6,1208.2 826.2,1209.9 824.0,1212.1 821.7,1213.2 820.0" style="fill:none;stroke:#c86cff;stroke-width:2"/>
<polyline points="935.5 739.9,935.0 744.4,936.6 746.1,942.9 751.7,945.1 752.9,948.5 755.1,951.3 756.8,953.0 758.5,955.3 759.6,957.0 760.8,959.2 762.5,958.7 763.6" style="fill:none;stroke:#c86cff;stroke-width:2"/>
<polyline points="941.7 763.6,942.9 759.1,944.0 755.7,945.7 752.9,946.8 750.6,949.1 746.7,951.3 743.3,953.0 741.0,955.3 737.6" style="fill:none;stroke:#c86cff;stroke-width:2"/>
<polyline points="622.2 606.7,626.2 607.2,633.0 608.4,635.8 608.4,640.3 608.9,643.7 608.9,647.1 609.5,649.3 609.5,656.1 610.1,660.1 610.6,662.9 610.6,665.1 611.2,668.0 611.2,671.9 611.7,678.7 612.9,681.5 613.4,685.5 614.0,692.2 614.6,695.1 614.6,699.0 615.1,703.0 615.1,708.0 615.7,712.0 615.7,715.9 616.3,718.2 616.3,721.0 616.8,723.3 616.8,727.2 617.4,730.6 618.0,733.4 618.5,735.7 618.5,739.1 619.1,743.0 619.6,745.3 619.6,750.9 620.2,753.8 620.2,762.8 620.8,766.2 620.8,784.2 621.3,786.5 621.3,792.7 620.8,791.6 619.1" style="fill:none;stroke:#5784ff;stroke-width:2"/>
<polyline points="603.0 623.6,603.6 627.0,605.9 632.1,607.0 634.9,608.7 637.7,609.8 640.0,614.9 649.6,616.0 652.4,617.2 654.6,618.9 659.2,621.1 663.1,622.2 666.5,623.4 669.3,625.1 673.3,626.2 676.1,627.9 680.0,629.0 682.9,630.7 686.3,636.9 697.5,638.0 699.2,639.7 702.1,640.9 704.3,643.1 708.3,644.3 710.5,646.5 714.5,647.6 716.7,649.3 719.0,650.5 720.7,652.2 723.5,653.3 725.8,655.0 728.0,656.1 729.7,657.8 732.5,658.9 733.7" style="fill:none;stroke:#5784ff;stroke-width:2"/>
<polyline points="743.6 760.8,745.3 752.9,745.9 750.6,747.6 747.2,748.7 744.4,750.4 741.6,751.5 739.9,752.6 737.6,754.9 734.2,757.1 731.4,758.8 729.7,760.0 728.0,761.7 725.2,763.9 722.9,765.0 721.3,769.0 715.0,771.3 712.8,772.4 710.5,774.6 708.3,778.6 703.8,779.7 702.1,782.0 699.8,784.8 696.4,786.5 694.7,788.2 692.5,789.3 690.8,791.0 687.9,792.7 685.7,793.8 684.0,796.1 681.2,797.8 678.4,800.0 676.1,801.2 674.4,802.9 671.6,804.0 669.3,805.1 666.5,806.8 663.1,808.5 661.4,810.2 658.6,811.9 657.5,813.6 655.2,815.9 654.1,817.0 652.4,818.7 650.1,820.9 647.9,822.6 646.7,822.1 647.3" style="fill:none;stroke:#5784ff;stroke-width:2"/>
<polyline points="532.5 523.1,531.4 517.5,531.4 514.7,531.9 505.1,533.1 500.5,535.3 497.7,537.0 498.9,538.1 501.7,539.3 503.9,539.3 506.8,540.4 508.4,541.5 506.2,544.3 501.1,546.0 502.8,546.6 505.1,547.7 510.1,547.7 512.4,547.2 519.7" style="fill:none;stroke:#ffffff;stroke-width:2"/>
<polyline points="557.3 505.1,557.3 506.6,556.6 505.8" style="fill:none;stroke:#ffffff;stroke-width:2"/>
<polyline points="558.5 512.4,558.5 513.9,557.7 513.1" style="fill:none;stroke:#ffffff;stroke-width:2"/>
<polyline points="567.5 503.4,568.6 515.2,568.6 511.8,569.7 504.5,573.1 502.8,574.8 505.6,575.4 508.4,577.6 507.9,578.8 506.2,581.0 505.6,582.2 509.0,582.2 511.3,582.7 518.6" style="fill:none;stroke:#ffffff;stroke-width:2"/>
<polyline points="590.1 518.6,592.3 512.4,586.1 510.7,586.1 517.5,586.7 518.6,587.2 519.7" style="fill:none;stroke:#ffffff;stroke-width:2"/>
<polyline points="601.4 509.6,596.8 513.0,599.1 518.6,600.2 516.9,601.9 510.7,601.9 507.9,601.4 501.7,600.8 499.4,599.7 501.7,599.7 503.9,600.2 515.2,600.8 518.6,602.5 519.7,603.0 519.2" style="fill:none;stroke:#ffffff;stroke-width:2"/>
<polyline points="609.3 512.4,609.8 508.4,608.1 516.3,608.7 518.0,609.3 518.6,610.4 518.6" style="fill:none;stroke:#ffffff;stroke-width:2"/>
<polyline points="617.7 520.3,618.3 511.3,621.7 513.0,625.1 513.5,627.3 511.3,630.1 515.8,630.7 518.0,631.8 519.7" style="fill:none;stroke:#ffffff;stroke-width:2"/>
<polyline points="657.2 496.0,658.9 500.5,660.1 507.9,660.1 511.3,659.5 519.2,658.4 517.5,658.4 514.1,657.8 501.7,658.4 498.9,660.1 493.8,661.8 492.1,664.6 491.5,668.0 492.6,668.5 494.9,667.4 498.3,666.3 500.0,664.0 502.2,661.2 506.2,663.4 506.8,665.7 506.8,668.5 506.2,671.9 506.2,675.3 507.3,676.4 509.6" style="fill:none;stroke:#ffffff;stroke-width:2"/>
<polyline points="682.1 506.2,682.1 507.7,681.3 506.9" style="fill:none;stroke:#ffffff;stroke-width:2"/>
<polyline points="683.8 511.8,683.8 513.3,683.0 512.6" style="fill:none;stroke:#ffffff;stroke-width:2"/>
<polyline points="698.4 500.0,698.4 514.7,699.6 510.7,699.6 508.4,701.8 502.2,705.2 501.1,707.5 502.2,709.2 503.9,710.3 506.2,710.9 508.4,712.0 511.3,713.1 513.5,714.8 514.7,717.1 513.5,718.8 511.8,719.3 509.6,720.5 505.6,719.3 502.8,717.1 501.1,714.2 502.2,713.1 503.9,712.6 506.8,713.1 510.1,715.4 511.8" style="fill:none;stroke:#ffffff;stroke-width:2"/>
<polyline points="726.7 501.7,726.7 511.8,731.2 511.8,733.4 508.4,734.0 506.2,734.6 502.8,735.1 505.6,735.7 509.6,736.3 512.4,737.4 511.8" style="fill:none;stroke:#ffffff;stroke-width:2"/>
<polyline points="741.9 488.1,742.5 497.2,741.9 499.4,741.9 502.2,741.3 505.1,741.3 508.4,740.8 511.3,740.2 513.5,739.6 511.8" style="fill:none;stroke:#ffffff;stroke-width:2"/>
<polyline points="738.0 500.0,748.7 503.4,756.6 502.8,752.1 502.2,750.4 507.9,752.1 511.8,754.9 512.4,756.0 511.8" style="fill:none;stroke:#ffffff;stroke-width:2"/>
<polyline points="761.7 509.6,763.4 503.4,764.5 501.1,765.6 499.4,766.2 498.9" style="fill:none;stroke:#ffffff;stroke-width:2"/>
<polyline points="403.8 494.0,405.2 496.9,405.2 499.8,406.7 520.3,406.7 515.9,408.2 513.0,412.6 505.7,414.0 504.2,418.4 501.3,419.9 499.8,422.8 498.4,419.9 501.3,416.9 502.7,414.0 508.6,415.5 510.1,416.9 513.0,418.4 514.5,419.9 517.4,422.8 520.3,430.1 524.7,431.6 523.2,434.5 520.3" style="fill:none;stroke:#ffffff;stroke-width:2"/>
<polyline points="443.3 513.0,444.8 511.5,447.7 507.1,447.7 504.2,446.2 502.7,443.3 504.2,441.8 505.7,441.8 508.6,440.4 510.1,440.4 514.5,441.8 520.3,443.3 521.8,446.2 521.8,453.5 520.3,455.0 518.9" style="fill:none;stroke:#ffffff;stroke-width:2"/>
<polyline points="460.9 505.7,460.9 508.6,462.3 514.5,463.8 515.9,466.7 515.9,468.2 511.5,471.1 504.2,469.7 505.7,468.2 510.1,465.3 515.9,465.3 518.9,463.8 523.2,463.8 529.1,462.3 532.0,462.3 536.4" style="fill:none;stroke:#ffffff;stroke-width:2"/>
<polyline points="482.8 498.4,482.8 499.9,482.1 499.1" style="fill:none;stroke:#ffffff;stroke-width:2"/>
<polyline points="484.3 517.4,484.3 518.9,483.5 518.1" style="fill:none;stroke:#ffffff;stroke-width:2"/>
<polyline points="374.5 470.5,374.5 474.9,373.0 511.5,373.0 517.4,371.6 533.5,371.6 540.8,373.0 548.1,373.0 551.1,374.5 552.5,380.3 554.0,383.3 554.0,411.1 552.5,419.9 552.5,425.7 551.1,441.8 548.1,450.6 548.1,456.5 546.7,463.8 546.7,479.9 548.1,487.2 548.1,493.1 546.7,503.3 546.7,513.6 545.2,520.9 543.7,528.2 543.7,539.9 540.8,550.2 539.4,557.5 539.4,564.8 537.9,573.6 536.4,583.9 535.0,589.7 535.0,605.8 533.5,611.7 533.5,633.6 535.0,639.5 533.5,648.3 533.5,661.5 532.0,667.3 532.0,674.6 530.6,680.5 530.6,701.0 529.1,706.8 529.1,718.6 527.6,725.9 527.6,739.0 529.1,744.9 529.1,771.3 527.6,775.7 527.6,784.4 526.2,788.8 526.2,793.2 527.6,796.1 527.6,797.6 524.7,797.6 521.8,799.1 520.3,797.6 515.9,797.6 513.0,799.1 498.4,799.1 495.4,797.6 486.6,796.1 483.7,791.8 476.4,790.3 473.5,785.9 469.1,781.5 469.1,774.2 467.6,771.3 467.6,755.2 466.1,752.2 466.1,736.1 464.7,731.7 464.7,627.8 464.7,623.4 463.2,616.1 463.2,602.9 464.7,595.6 464.7,544.3 466.1,539.9 466.1,529.7 467.6,522.4 467.6,518.0 469.1,513.6 469.1,507.7 470.5,501.9 470.5,496.0 469.1,490.2 469.1,459.4 470.5,455.0 470.5,447.7 472.0,441.8 472.0,425.7 470.5,421.3 470.5,418.4 469.1,414.0 469.1,400.8 467.6,399.4 466.1,395.0 463.2,392.1 463.2,383.3 464.7,381.8 461.8,377.4 461.8" style="fill:none;stroke:#ffffff;stroke-width:2"/>
<polyline points="1124.1 915.6,1125.6 914.2,1124.1 912.7,1119.7 915.6,1119.7 920.0,1118.3 922.9,1118.3 928.8,1119.7 931.7,1122.6 931.7,1124.1 930.3,1127.0 925.9,1128.5 922.9,1130.0 918.6,1131.4 908.3,1131.4 902.4,1130.0 895.1,1128.5 896.6,1127.0 899.5,1128.5 902.4,1128.5 905.4,1130.0 914.2,1130.0 917.1,1131.4 922.9,1131.4 925.9,1132.9 924.4" style="fill:none;stroke:#ffffff;stroke-width:2"/>
<polyline points="1143.1 930.3,1144.6 931.7,1146.1 925.9,1147.5 922.9,1147.5 920.0,1146.1 915.6,1143.1 918.6,1141.7 921.5,1141.7 924.4,1143.1 934.7,1144.6 936.1,1151.9 937.6,1153.4 936.1,1156.3 931.7" style="fill:none;stroke:#ffffff;stroke-width:2"/>
<polyline points="1165.1 912.7,1163.6 915.6,1162.2 922.9,1163.6 931.7,1165.1 934.7,1169.5 933.2,1172.4 930.3,1173.9 927.3,1173.9 924.4,1175.3 920.0,1175.3 914.2,1173.9 902.4,1173.9 899.5,1175.3 911.2,1175.3 915.6,1176.8 922.9,1176.8 927.3,1178.3 934.7" style="fill:none;stroke:#ffffff;stroke-width:2"/>
<polyline points="1192.9 922.9,1191.5 925.9,1191.5 928.8,1192.9 936.1,1192.9 939.1,1194.4 937.6,1194.4 931.7" style="fill:none;stroke:#ffffff;stroke-width:2"/>
<polyline points="1194.4 911.2,1194.4 908.3,1195.8 906.8,1195.8 909.8,1197.3 911.2,1198.8 915.6,1200.2 918.6,1201.7 920.0" style="fill:none;stroke:#ffffff;stroke-width:2"/>
<polyline points="1212.0 922.9,1210.5 921.5,1204.6 930.3,1206.1 933.2,1206.1 937.6,1207.6 939.1,1213.4 942.0,1219.3 937.6" style="fill:none;stroke:#ffffff;stroke-width:2"/>
<polyline points="1222.2 927.3,1219.3 928.8,1217.8 933.2,1217.8 936.1,1219.3 939.1,1219.3 942.0,1222.2 940.5,1225.1 937.6,1226.6 933.2,1228.1 924.4,1228.1 927.3,1229.5 934.7,1229.5 937.6,1231.0 940.5,1233.9 940.5,1233.9 936.1" style="fill:none;stroke:#ffffff;stroke-width:2"/>
<polyline points="1241.2 903.9,1241.2 906.8,1241.2 931.7,1241.2 934.7" style="fill:none;stroke:#ffffff;stroke-width:2"/>
<polyline points="1235.4 921.5,1238.3 921.5,1242.7 922.9,1245.6 922.9,1247.1 924.4,1250.0 925.9,1252.9 925.9,1260.3 918.6,1258.8 920.0,1255.9 925.9,1254.4 927.3,1254.4 930.3,1255.9 933.2,1257.3 934.7,1258.8 936.1" style="fill:none;stroke:#ffffff;stroke-width:2"/>
<polyline points="1276.4 921.5,1272.0 922.9,1270.5 925.9,1270.5 928.8,1272.0 934.7,1273.4 939.1,1274.9 940.5,1277.8 940.5,1279.3 937.6,1282.2 930.3,1283.7 922.9,1283.7 915.6,1285.2 918.6,1285.2 922.9,1285.2 933.2" style="fill:none;stroke:#ffffff;stroke-width:2"/>
<polyline points="1308.6 911.2,1308.6 914.2,1308.6 937.6,1308.6 940.5,1308.6 943.4" style="fill:none;stroke:#ffffff;stroke-width:2"/>
<polyline points="1318.8 936.1,1320.3 939.1,1320.3 942.0,1320.3 944.9,1320.3 949.3,1318.8 947.8,1318.8 943.4" style="fill:none;stroke:#ffffff;stroke-width:2"/>
<polyline points="1320.3 915.6,1321.8 917.1,1323.2 918.6,1324.7 922.9" style="fill:none;stroke:#ffffff;stroke-width:2"/>
<polyline points="1327.6 942.0,1327.6 939.1,1329.1 934.7,1332.0 927.3,1333.5 925.9,1336.4 930.3,1337.9 933.2,1337.9 936.1,1339.3 939.1,1339.3 942.0,1340.8 943.4,1351.0 936.1,1354.0 936.1,1355.4 937.6,1358.4 937.6,1358.4 933.2,1355.4 934.7,1354.0 940.5,1354.0 943.4,1355.4 949.3,1356.9 950.8,1359.8 949.3" style="fill:none;stroke:#ffffff;stroke-width:2"/>
<polyline points="409.6 832.2,409.6 835.1,408.2 839.5,405.2 845.3,403.8 849.7,402.3 852.7,402.3 857.1,399.4 861.5,397.9 868.8,396.4 871.7,395.0 876.1,393.5 882.0,390.6 892.2,389.1 895.1,387.7 901.0,386.2 905.4,384.7 908.3,384.7 911.2,383.3 915.6,383.3 918.6,381.8 921.5,381.8 925.9,383.3 927.3,383.3 922.9,384.7 918.6,387.7 912.7,387.7 908.3,389.1 903.9,390.6 898.1" style="fill:none;stroke:#ffffff;stroke-width:2"/>
<polyline points="399.4 864.4,400.8 857.1,402.3 852.7,403.8 845.3,405.2 843.9,406.7 841.0,406.7 838.0,408.2 836.6,409.6 833.6,411.1 832.2,414.0 832.2,425.7 833.6,428.7 833.6,444.8 832.2,446.2 833.6,447.7 832.2" style="fill:none;stroke:#ffffff;stroke-width:2"/>
<polyline points="444.8 830.7,446.2 833.6,447.7 838.0,447.7 841.0,449.2 843.9,449.2 846.8,450.6 852.7,452.1 864.4,453.5 868.8,453.5 873.2,455.0 882.0,456.5 886.3,456.5 890.7,457.9 896.6,462.3 912.7,463.8 915.6,465.3 920.0,466.7 927.3,468.2 930.3,468.2 933.2,469.7 934.7,468.2 936.1" style="fill:none;stroke:#ffffff;stroke-width:2"/>
<polyline points="411.1 836.6,411.1 833.6,412.6 826.3,412.6 823.4,414.0 798.5,414.0 795.6,414.0 783.9" style="fill:none;stroke:#ffffff;stroke-width:2"/>
<polyline points="415.5 778.0,418.4 778.0,430.1 776.5,433.1 776.5,436.0 778.0,440.4 782.4,441.8 786.8,443.3 789.7,443.3 794.1,444.8 838.0" style="fill:none;stroke:#ffffff;stroke-width:2"/>
<polyline points="427.2 780.9,427.2 783.9,428.7 786.8,428.7 783.9,427.2 780.9,427.2 778.0,428.7 751.6,428.7 748.7,427.2 737.0" style="fill:none;stroke:#ffffff;stroke-width:2"/>
<polyline points="400.8 750.2,402.3 748.7,405.2 748.7,437.4 750.2,443.3 750.2,453.5 751.6,457.9 751.6,460.9 753.1,463.8 753.1,465.3 751.6" style="fill:none;stroke:#ffffff;stroke-width:2"/>
<polyline points="459.4 739.9,460.9 741.4,460.9 744.3,462.3 754.6,462.3 757.5,462.3 760.4" style="fill:none;stroke:#ffffff;stroke-width:2"/>
<polyline points="472.6 739.9,472.6 742.9,472.6 761.9,474.0 763.4" style="fill:none;stroke:#ffffff;stroke-width:2"/>
<polyline points="478.4 741.4,478.4 745.8,479.9 751.6,479.9 754.6,478.4 763.4" style="fill:none;stroke:#ffffff;stroke-width:2"/>
<polyline points="409.6 741.4,409.6 745.8,408.2 759.0,408.2 756.0,408.2 753.1,408.2 750.2" style="fill:none;stroke:#ffffff;stroke-width:2"/>
<polyline points="405.2 739.9,405.2 742.9,403.8 744.3,403.8 747.3,402.3 756.0,402.3 759.0,400.8 757.5,399.4 751.6,397.9 750.2,396.4 747.3" style="fill:none;stroke:#ffffff;stroke-width:2"/>
<polyline points="395.0 741.4,395.0 745.8,396.4 750.2,396.4 753.1,396.4 756.0,396.4 759.0,396.4 761.9" style="fill:none;stroke:#ffffff;stroke-width:2"/>
<polyline points="315.9 742.9,314.5 747.3,313.0 748.7,311.5 751.6,308.6 759.0,308.6 764.8,307.1 767.8,307.1 772.1,308.6 795.6,310.1 802.9,311.5 805.8,313.0 810.2,315.9 816.1,326.2 835.1,329.1 838.0,332.0 839.5,333.5 841.0,336.4 842.4,339.3 842.4,340.8 841.0" style="fill:none;stroke:#ffffff;stroke-width:2"/>
<polyline points="245.6 751.6,244.2 754.6,244.2 759.0,242.7 766.3,241.3 775.1,239.8 780.9,239.8 786.8,238.3 797.0,236.9 805.8,236.9 813.1,235.4 819.0,235.4 824.9,236.9 842.4,238.3 846.8,239.8 852.7,241.3 860.0,244.2 867.3,247.1 873.2,250.0 877.6,253.0 883.4,257.4 890.7,261.8 895.1,270.5 905.4,277.9 909.8,282.2 914.2,289.6 918.6,295.4 921.5,299.8 922.9,302.7 922.9,304.2 921.5" style="fill:none;stroke:#ffffff;stroke-width:2"/>
<polyline points="-61.8 911.2,-60.4 915.6,-60.4 921.5,-58.9 925.9,-58.9 933.2,-57.4 936.1,-57.4 928.8,-56.0 924.4,-56.0 920.0,-57.4 917.1,-57.4 912.7,-58.9 911.2,-57.4 908.3,-53.0 903.9,-50.1 902.4,-47.2 902.4,-16.4 903.9,-12.0 903.9,2.6 905.4,5.5 906.8,9.9 908.3,11.4 909.8,17.2 917.1,17.2 920.0,15.8 952.2,15.8 956.6,14.3 961.0,11.4 961.0,8.5 959.5,5.5 959.5,-23.7 958.1,-26.7 958.1,-34.0 955.2,-38.4 953.7,-41.3 952.2,-47.2 950.8,-48.6 949.3,-51.6 949.3,-48.6 949.3,-44.2 950.8,-45.7 952.2,-50.1 944.9,-51.6 942.0,-51.6 939.1,-53.0 934.7,-54.5 927.3,-56.0 922.9,-56.0 920.0,-54.5 918.6,-51.6 918.6,-48.6 920.0,-48.6 924.4,-50.1 927.3,-51.6 933.2,-51.6 936.1" style="fill:none;stroke:#ffffff;stroke-width:2"/>
<polyline points="-26.7 977.1,-26.7 974.2,-25.2 972.7" style="fill:none;stroke:#ffffff;stroke-width:2"/>
<polyline points="-20.8 963.9,-19.4 965.4,-19.4 968.3,-19.4 974.2,-19.4 978.6,-19.4 983.0" style="fill:none;stroke:#ffffff;stroke-width:2"/>
<polyline points="-44.2 983.0,-42.8 981.5,-38.4 980.0,-25.2 978.6,-22.3 978.6,-10.6 977.1,-7.6 977.1,2.6 975.7,5.5 975.7,9.9 977.1,8.5 980.0,8.5 983.0,7.0 987.4,7.0 990.3,5.5 993.2,1.1 996.2,-1.8 996.2,-6.2 994.7,-9.1 993.2,-15.0 991.8,-19.4 990.3,-22.3 990.3,-36.9 988.8,-38.4 987.4,-39.9 984.4,-42.8 984.4,-41.3 983.0,-38.4 981.5,-26.7 977.1,-23.7 977.1,-19.4 975.7" style="fill:none;stroke:#ffffff;stroke-width:2"/>
<polyline points="31.9 883.4,30.4 882.0,27.5 876.1,29.0 879.0,31.9 882.0,37.7 889.3,42.1 893.7,46.5 901.0,49.5 905.4,52.4 911.2,55.3 918.6,58.2 928.8,59.7 934.7,62.6 950.8,62.6 959.5,61.2 963.9,61.2 968.3,58.2 974.2,56.8 975.7,50.9 978.6" style="fill:none;stroke:#ffffff;stroke-width:2"/>
<polyline points="75.8 846.8,81.7 846.8,86.1 849.7,89.0 852.7,97.8 862.9,106.6 874.6,116.8 889.3,121.2 898.1,125.6 911.2,130.0 927.3,130.0 937.6,128.5 959.5,125.6 965.4,122.7 971.3" style="fill:none;stroke:#ffffff;stroke-width:2"/>
<polyline points="135.8 830.7,138.8 832.2,143.2 833.6,150.5 838.0,156.3 842.4,159.3 845.3,168.0 857.1,171.0 861.5,175.4 871.7,178.3 882.0,179.8 889.3,181.2 898.1,184.2 911.2,184.2 924.4,185.6 931.7,184.2 940.5,184.2 952.2,181.2 961.0,179.8 965.4" style="fill:none;stroke:#ffffff;stroke-width:2"/>
<polyline points="-72.1 1037.1,-70.6 1038.6,-70.6 1041.5,-69.1 1044.5,-67.7 1051.8,-66.2 1056.2,-66.2 1059.1,-64.7 1063.5,-61.8 1057.6,-60.4 1053.3,-57.4 1048.9,-56.0 1047.4,-54.5 1044.5,-53.0 1043.0,-50.1 1043.0,-48.6 1044.5,-44.2 1050.3,-42.8 1054.7,-39.9 1062.0,-38.4 1059.1,-38.4 1056.2,-36.9 1050.3,-36.9 1047.4,-35.5 1040.1,-35.5 1037.1,-34.0 1035.7,-31.1 1037.1,-29.6 1038.6" style="fill:none;stroke:#ffffff;stroke-width:2"/>
<polyline points="-22.3 1041.5,-20.8 1043.0,-19.4 1047.4,-17.9 1054.7,-17.9 1069.4,-16.4 1035.7,-15.0 1038.6,-12.0 1041.5,-9.1 1045.9,-4.7 1054.7,-0.3 1059.1,-0.3 1062.0,1.1 1060.6,1.1 1057.6,-0.3 1045.9,1.1 1041.5" style="fill:none;stroke:#ffffff;stroke-width:2"/>
<polyline points="14.3 1034.2,14.3 1037.1,15.8 1041.5,15.8 1044.5,15.8 1059.1,15.8 1062.0,17.2 1057.6" style="fill:none;stroke:#ffffff;stroke-width:2"/>
<polyline points="33.4 1035.7,31.9 1037.1,26.0 1044.5,26.0 1047.4,24.6 1048.9,26.0 1053.3,27.5 1056.2,31.9 1057.6,34.8 1059.1,37.7 1059.1,42.1 1057.6,45.1 1057.6,48.0 1056.2,49.5 1054.7" style="fill:none;stroke:#ffffff;stroke-width:2"/>
<polyline points="617.3 675.2,611.4 677.2,605.6 686.9,603.6 696.7,601.7 702.5,601.7 706.4,599.7 712.3,599.7 716.2,601.7 727.9,601.7 733.7,599.7 766.8,599.7 770.7,597.8 784.4,597.8 790.2,595.8 798.0,595.8 807.8,593.9 815.6,593.9 819.5,591.9 827.2,590.0 831.1,588.0 837.0,586.1 840.9,584.2 842.8,572.5 852.6,570.5 854.5,564.7 856.5,560.8 858.4,556.9 858.4,553.0 860.4,547.1 862.3,543.2 862.3,537.4 864.3,533.5 864.3,529.6 862.3,525.7 862.3,523.7 860.4,519.8 860.4,517.9 858.4,512.0 856.5,508.2 856.5,500.4 854.5,496.5 854.5,494.5 852.6,490.6 850.6,488.7 848.7,482.8 838.9,480.9 837.0,477.0 831.1,477.0 827.2,475.0 825.3,475.0 821.4,473.1 817.5,469.2 805.8,467.2 796.1,467.2 790.2,465.3 788.3,465.3 784.4,463.3 778.5,461.4 776.6,459.4 772.7,455.5 770.7,453.6 766.8,449.7 764.9,447.7 762.9,441.9 757.1" style="fill:none;stroke:#ffffff;stroke-width:2"/>
<polyline points="506.2 893.5,508.2 899.3,508.2 903.2,508.2 907.1,508.2 913.0,508.2 916.9" style="fill:none;stroke:#ffffff;stroke-width:2"/>
<polyline points="506.2 887.7,508.2 885.7,510.1 883.8,514.0 883.8,515.9 885.7,514.0 887.7" style="fill:none;stroke:#ffffff;stroke-width:2"/>
<polyline points="508.2 901.3,512.0 901.3,515.9 903.2,519.8 903.2" style="fill:none;stroke:#ffffff;stroke-width:2"/>
<polyline points="525.7 907.1,527.6 909.1,529.6 914.9,527.6 918.8,525.7 916.9,523.7 914.9" style="fill:none;stroke:#ffffff;stroke-width:2"/>
<polyline points="523.7 899.3,525.7 901.3,527.6 903.2,527.6 907.1" style="fill:none;stroke:#ffffff;stroke-width:2"/>
<polyline points="531.5 893.5,533.5 895.5,535.4 901.3,535.4 905.2,537.4 914.9,539.3 909.1,541.3 907.1,545.2 907.1,549.1 911.0,547.1 914.9,547.1 918.8,543.2 924.7,541.3 928.6,539.3 930.5,537.4 924.7,537.4 920.8" style="fill:none;stroke:#ffffff;stroke-width:2"/>
<polyline points="556.9 920.8,556.9 924.7,558.8 920.8,558.8 916.9,560.8 911.0,560.8 907.1,564.7 909.1,566.6 911.0,568.6 914.9,574.4 918.8,576.4 916.9,578.3 913.0,578.3 909.1,576.4 903.2,574.4 905.2,572.5 909.1,572.5 914.9,574.4 922.7,576.4 924.7,582.2 926.6,586.1 924.7,588.0 922.7" style="fill:none;stroke:#ffffff;stroke-width:2"/>
</svg>